# xmcd
#
# Track frame offsets:
# 150
# 15122
# 21348
# 36626
# 47547
# 53656
# 62633
# 73079
# 79400
# 93403
# 103855
# 112416
# 121552
# 134585
# 143248
# 153326
# 162207
# 167474
#
# Disc length: 2434 seconds
#
#
# Revision: 0
# Processed by: cddbd v1.5.1PL2 Copyright (c) Steve Scherf et al.
# Submitted via: FreeRIP 2.943 
#
DISCID=f3098012
DTITLE=Александр Городницкии - Наши Барды
DYEAR=2003
DGENRE=Country
TTITLE0=Геркулесовы столбы
TTITLE1=Родство по слову
TTITLE2=Индиискии океан
TTITLE3=Деревянные города
TTITLE4=Памятник
TTITLE5=Перекаты
TTITLE6=Песня полярных летчиков
TTITLE7=Ностальгия
TTITLE8=Ленинградская песня
TTITLE9=Не женитесь, поэты
TTITLE10=Старыи Пушкин
TTITLE11=Чистые пруды
TTITLE12=Канада
TTITLE13=Скрипачи
TTITLE14=Моряк, покрепче вяжи узлы
TTITLE15=Жена французского посла
TTITLE16=Русскии язык
TTITLE17=Снег
EXTD=
EXTT0=
EXTT1=
EXTT2=
EXTT3=
EXTT4=
EXTT5=
EXTT6=
EXTT7=
EXTT8=
EXTT9=
EXTT10=
EXTT11=
EXTT12=
EXTT13=
EXTT14=
EXTT15=
EXTT16=
EXTT17=
PLAYORDER=
